<svg xmlns="http://www.w3.org/2000/svg" viewBox="102.99 167.81 269.25 291.42">
 <g id="Layer_1">
  <title>Layer 1</title>
  <path transform="rotate(7 237.02 313.517)" id="svg_7" d="m118.66354,184.10895c0,0 1.17647,261.17558 1.17647,261.17558c0,0 234.11685,-2.35293 234.70508,-1.7647c0.58823,0.58823 1.17647,-226.46982 0.58823,-225.88158c-0.58823,0.58823 -32.35283,-36.47046 -32.35283,-35.88223c0,0.58823 -204.11695,2.35293 -204.11695,2.35293z" opacity="NaN" stroke="#F3752B" fill="none"/>
  <path transform="rotate(7 353.527 215.587)" id="svg_10" d="m369.70367,233.23375c0,0 -32.35283,-1.17647 -32.35283,-2.94117c0,-1.7647 0.58823,-32.35283 0.58823,-32.35283" opacity="NaN" stroke="#F3752B" fill="none"/>
  <line id="svg_14" y2="278.00012" x2="267.00015" y1="268.00011" x1="180.00013" stroke="#F3752B" fill="none"/>
  <line id="svg_15" y2="242.00011" x2="250.00015" y1="232.00011" x1="163.00013" stroke="#F3752B" fill="none"/>
  <line id="svg_16" y2="259.00011" x2="249.00015" y1="249.00011" x1="162.00013" stroke="#F3752B" fill="none"/>
 </g>

</svg>