<svg xmlns="http://www.w3.org/2000/svg" viewBox="253.94 224.94 234.36 231">
 <g id="Layer_1">
  <title>Layer 1</title>
  <path id="svg_1" d="m299.47832,271.44452c0,0 32,-46 32,-46c0,0 97,46 97,46c0,0 59,119 59,120c0,1 -39,57 -40,56c-1,-1 -120,8 -119,8c1,0 -76,-42 -74,-47c2,-5 45,-137 45,-137z" opacity="NaN" stroke="#F3752B" fill="none"/>
  <path stroke="#F3752B" id="svg_3" d="m429,271.9878c-1.98511,3 -39.7021,43 -38.70955,43c0.99255,0 -57.56805,-91 -57.56805,-88c0,3 -2.97766,75 -2.97766,75c0,0 -29.77658,-28 -30.76913,-28" opacity="NaN" fill="none"/>
  <path stroke="#F3752B" id="svg_5" d="m390.27778,315.05439c1,2.97429 14,133.84307 14,134.8345" opacity="NaN" fill="none"/>
  <path id="svg_7" d="m487.80316,391.34016c0,0 -46.09747,5.60975 -46.09747,5.60975c0,0 6.82926,50.24381 6.82926,50.24381" opacity="NaN" stroke="#F3752B" fill="none"/>
  <path id="svg_8" d="m441.94959,396.706c-0.2439,-0.2439 -46.34138,-31.70726 -46.34138,-31.46336" opacity="NaN" stroke="#F3752B" fill="none"/>
  <path id="svg_9" d="m397.31553,384.0231c0,0 -67.56085,-81.95106 -67.56085,-81.95106" opacity="NaN" stroke="#F3752B" fill="none"/>
  <path id="svg_11" d="m328.29127,454.99858c0,0 1.95122,-153.17044 1.70731,-153.41434" opacity="NaN" stroke="#F3752B" fill="none"/>
  <path id="svg_12" d="m254.63287,408.9011c0.2439,0 75.36571,-31.21945 74.87791,-31.21945c-0.4878,0 -54.14624,-32.68287 -54.14624,-32.68287" opacity="NaN" stroke="#F3752B" fill="none"/>
  <path id="svg_14" d="m429.13753,312.70396c0,0 -11.88811,19.58042 -11.88811,19.58042" opacity="NaN" stroke="#F3752B" fill="none"/>
  <path id="svg_15" d="m419.81352,303.37995c0,0 -11.88811,19.58042 -11.88811,19.58042" opacity="NaN" stroke="#F3752B" fill="none"/>
  <path id="svg_16" d="m424.47552,308.04196c0,0 -11.88811,19.58042 -11.88811,19.58042" opacity="NaN" stroke="#F3752B" fill="none"/>
 </g>
</svg>