<svg xmlns="http://www.w3.org/2000/svg" viewBox="469.12 150.08 209.46 278.5">
 <g id="Layer_1">
  <title>Layer 1</title>
  <ellipse stroke="#F3752B" ry="35.38462" rx="35.38462" id="svg_18" cy="384.23075" cx="634.23079" fill="none"/>
  <ellipse stroke="#F3752B" ry="43.84615" rx="43.84615" id="svg_22" cy="384.23079" cx="634.23075" fill="none"/>
  <ellipse stroke="#F3752B" ry="35.38462" rx="35.38462" id="svg_23" cy="384.23075" cx="513.46156" fill="none"/>
  <ellipse stroke="#F3752B" ry="43.84615" rx="43.84615" id="svg_24" cy="384.23075" cx="513.46152" fill="none"/>
  <path stroke="#F3752B" id="svg_25" d="m544.4179,353.65392c0,0 120.31757,-188.46154 119.6014,-189.23077c-0.71618,-0.76923 -2.14853,-13.84615 -2.14853,-13.84615c0,0 -145.38373,190 -145.38373,190" fill="none"/>
  <path id="svg_26" d="m600.48718,353.65391c0,0 -129.23077,-188.46154 -128.46154,-189.23077c0.76923,-0.76923 2.30769,-13.84615 2.30769,-13.84615c0,0 156.15385,190 156.15385,190" opacity="NaN" stroke="#F3752B" fill="none"/>
  <ellipse ry="7.00001" rx="7.00001" id="svg_27" cy="288.00078" cx="571.00133" stroke="#F3752B" fill="none"/>
 </g>

</svg>